# xmcd CD database file
#
# Track frame offsets:
#	150
#	14808
#	38472
#	50472
#	74468
#	84359
#	99947
#	118114
#	140192
#	158912
#	173812
#	184284
#
# Disc length: 2678 seconds
#
# Revision: 2
# Processed by: cddbd v1.5.2PL0 Copyright (c) Steve Scherf et al.
# Submitted via: CDex 1.70beta2
#
DISCID=a30a740c
DTITLE=Rossana Casale - La Via Dei Misteri
DYEAR=1900
DGENRE=
TTITLE0=Deja Vu (G.Morra-M.Fabrizio-S.Fabrizio)
TTITLE1=La Via Dei Misteri (G.Morra-S.Fabrizio-M.Fabrizio)
TTITLE2=Petra (R.Casale-S.Fabrizio-M.Fabrizio)
TTITLE3=Sittin' On The Dock Of The Bay (O.Redding)
TTITLE4=La Via Dei Misteri (Ripresa) (G.Morra-S.Fabrizio-M.Fabrizio)
TTITLE5=Brividi (G.Morra-S.Fabrizio-M.Fabrizio)
TTITLE6=Destino (G.Morra-M.Fabrizio)
TTITLE7=Nuova Vita (G.Morra-S.Fabrizio-M.Fabrizio)
TTITLE8=Tango (G.Morra-S.Fabrizio-M.Fabrizio)
TTITLE9=Ritorna Tutto Al Tempo (G.Morra-S.Fabrizio-M.Fabrizio)
TTITLE10=Amnesia (G.Morra-S.Fabrizio-M.Fabrizio)
TTITLE11=Alla Fine (G.Morra-M.Fabrizio-M.Fabrizio)
EXTD=
EXTT0=
EXTT1=
EXTT2=
EXTT3=
EXTT4=
EXTT5=
EXTT6=
EXTT7=
EXTT8=
EXTT9=
EXTT10=
EXTT11=
PLAYORDER=
